<?xml version="1.0" encoding="iso-8859-1"?>
<!-- Generator: Adobe Illustrator 19.0.0, SVG Export Plug-In . SVG Version: 6.00 Build 0)  -->
<svg version="1.1" id="Layer_1" xmlns="http://www.w3.org/2000/svg" xmlns:xlink="http://www.w3.org/1999/xlink" x="0px" y="0px"
	 viewBox="0 0 511.999 511.999" style="enable-background:new 0 0 511.999 511.999;" xml:space="preserve">
<g>
	<g>
		<path d="M399.647,227.207c-53.203,0-93.887,22.533-93.887,84.499v88.88c0,61.966,40.684,84.499,93.887,84.499
			c52.576,0,93.887-22.533,93.887-84.499v-88.88C493.535,249.74,452.223,227.207,399.647,227.207z M430.943,400.587L430.943,400.587
			c0,20.654-11.892,30.043-31.295,30.043c-19.403,0-30.67-9.389-30.67-30.043v-88.88c0-20.656,11.267-30.044,30.67-30.044
			c19.403,0,31.295,9.389,31.295,30.044V400.587z"/>
	</g>
</g>
<g>
	<g>
		<path d="M363.345,0c-11.267,0-21.282,5.007-26.289,15.648L117.359,466.933c-1.878,3.756-3.13,8.137-3.13,11.892
			c0,15.648,13.77,33.174,35.052,33.174c11.892,0,23.785-6.259,28.166-15.648L397.77,45.066c1.877-3.756,2.502-8.137,2.502-11.893
			C400.272,13.144,380.869,0,363.345,0z"/>
	</g>
</g>
<g>
	<g>
		<path d="M112.351,25.662c-53.203,0-93.887,22.533-93.887,84.499v88.88c0,61.966,40.685,84.499,93.887,84.499
			c52.577,0,93.887-22.534,93.887-84.499v-88.88C206.239,48.195,164.929,25.662,112.351,25.662z M143.648,199.042
			c0,20.656-11.892,30.043-31.295,30.043c-19.403,0-30.67-9.389-30.67-30.043v-88.88c0-20.656,11.267-30.044,30.67-30.044
			c19.403,0,31.295,9.389,31.295,30.044V199.042z"/>
	</g>
</g>
<g>
</g>
<g>
</g>
<g>
</g>
<g>
</g>
<g>
</g>
<g>
</g>
<g>
</g>
<g>
</g>
<g>
</g>
<g>
</g>
<g>
</g>
<g>
</g>
<g>
</g>
<g>
</g>
<g>
</g>
</svg>
